Coordinates
version=1
nRows=6
nColumns=46
inDegrees=yes

Units are S.I. units (second, meters, Newtons, ...)
Angles are in degrees.

endheader
time	pelvis_tilt	pelvis_list	pelvis_rotation	pelvis_tx	pelvis_ty	pelvis_tz	bb_angle	bb_tx	bb_ty	bb_tz	hip_flexion_r	hip_adduction_r	hip_rotation_r	knee_angle_r	knee_angle_r_beta	ankle_angle_r	subtalar_angle_r	mtp_angle_r	crank_angle_r	hip_flexion_l	hip_adduction_l	hip_rotation_l	knee_angle_l	knee_angle_l_beta	ankle_angle_l	subtalar_angle_l	mtp_angle_l	crank_angle_l	lumbar_extension	lumbar_bending	lumbar_rotation	arm_flex_r	arm_add_r	arm_rot_r	elbow_flex_r	pro_sup_r	wrist_flex_r	wrist_dev_r	arm_flex_l	arm_add_l	arm_rot_l	elbow_flex_l	pro_sup_l	wrist_flex_l	wrist_dev_l
      5.00000000	    -31.42635083	      4.35993904	     -9.05855317	      0.28201726	      1.01197598	     -0.20811942	      0.00000000	      0.50000000	      0.00000000	      0.25000000	     98.31796048	      1.96484128	      7.99985146	    108.01741360	      1.88525952	      3.54414311	     -1.25567124	      0.00000000	      0.00000000	     36.82594679	     -7.72168215	    -11.31598078	     43.54325762	      0.75997321	     -8.90569593	     -3.21871823	      0.00000000	      0.00000000	    -33.86647225	     -6.66548380	      2.76919616	     66.05239061	    -27.24623594	     72.57291775	     65.45653132	     62.91830508	      0.00000000	      0.00000000	     39.61519572	    -27.99676115	     26.22798694	     76.36357217	     50.46111786	      0.00000000	      0.00000000
      5.00500000	    -31.78648474	      4.37420035	     -8.37297898	      0.28111883	      1.01385202	     -0.20779192	      0.00000000	      0.50000000	      0.00000000	      0.25000000	     97.46747186	      1.51603514	      7.98625749	    105.79525223	      1.84647548	      5.05177435	     -0.66830570	      0.00000000	      0.00000000	     38.90942796	     -7.70497088	    -10.24883611	     46.51640534	      0.81186443	    -11.29225677	     -4.42945675	      0.00000000	      0.00000000	    -33.76078565	     -7.12269320	      6.28405250	     59.64085890	    -32.86665768	     63.01205822	     72.28711223	     60.39422141	      0.00000000	      0.00000000	     46.23916406	    -24.32024532	     34.21776403	     69.73383993	     50.40212871	      0.00000000	      0.00000000
      5.01000000	    -31.91926444	      4.49144358	     -7.74121291	      0.28059886	      1.01583217	     -0.20747936	      0.00000000	      0.50000000	      0.00000000	      0.25000000	     96.30913445	      1.07852739	      8.05590775	    103.51159133	      1.80661808	      6.08045559	     -0.42721787	      0.00000000	      0.00000000	     40.68154175	     -7.56071306	     -9.33262029	     49.33749894	      0.86110180	    -13.55493805	     -4.88777210	      0.00000000	      0.00000000	    -33.95936383	     -7.07623044	      5.78993863	     59.52069948	    -32.66393204	     62.58498391	     72.15170600	     60.20514105	      0.00000000	      0.00000000	     46.66627260	    -24.28617434	     34.40680844	     69.54852233	     50.40915751	      0.00000000	      0.00000000
      5.01500000	    -32.06130223	      4.59169402	     -7.05812821	      0.28011499	      1.01761433	     -0.20729668	      0.00000000	      0.50000000	      0.00000000	      0.25000000	     95.03694317	      0.53309957	      8.08402726	    101.07632512	      1.76411467	      7.12717074	     -0.39304963	      0.00000000	      0.00000000	     42.48418303	     -7.35013469	     -8.35187150	     52.10732110	      0.90944432	    -15.80013659	     -5.33073751	      0.00000000	      0.00000000	    -34.11369611	     -6.98063963	      5.29185708	     59.15717563	    -32.46062597	     61.88968352	     72.02575667	     60.00522005	      0.00000000	      0.00000000	     47.27848637	    -24.30531456	     34.68461464	     69.33400360	     50.41555176	      0.00000000	      0.00000000
      5.02000000	    -32.18022801	      4.66384739	     -6.27852169	      0.27973882	      1.01924645	     -0.20723286	      0.00000000	      0.50000000	      0.00000000	      0.25000000	     93.63600252	     -0.09083024	      8.09543856	     98.56980681	      1.72036767	      8.06036355	     -0.50649936	      0.00000000	      0.00000000	     44.26975289	     -7.02550966	     -7.27211093	     54.82936588	      0.95695296	    -18.00291640	     -5.71806612	      0.00000000	      0.00000000	    -34.23813202	     -6.80822822	      4.73491939	     58.57891448	    -32.12039642	     60.79488018	     71.81871596	     59.73533626	      0.00000000	      0.00000000	     47.92245453	    -24.37857610	     35.21916034	     69.00157645	     50.43146377	      0.00000000	      0.00000000
      5.02500000	    -32.07423426	      5.01066429	     -5.64735987	      0.27981562	      1.02095162	     -0.20662338	      0.00000000	      0.50000000	      0.00000000	      0.25000000	     91.96243023	     -0.60118027	      8.36069751	     96.04481977	      1.67629833	      8.86960183	     -0.80086135	      0.00000000	      0.00000000	     45.66333259	     -6.60565722	     -6.69526741	     57.36664429	      1.00123682	    -19.87812458	     -5.48179410	      0.00000000	      0.00000000	    -34.56999452	     -7.06175944	      4.04500271	     58.17851723	    -31.88682000	     60.37056772	     71.71913345	     59.63421685	      0.00000000	      0.00000000	     48.52516470	    -24.46511925	     35.33638923	     68.88009424	     50.42488931	      0.00000000	      0.00000000
